# xmcd
#
# Track frame offsets:
#	150
#	12330
#	22500
#	37719
#	50414
#	63290
#	84915
#	96154
#	111560
#	124512
#	135608
#	147553
#	159228
#	177350
#	190265
#	203197
#	224446
#	238239
#
# Disc length: 3358
#
# Revision: 4
# Processed by: cddbd v1.5.1PL0 Copyright (c) Steve Scherf et al.
# Submitted via: ExactAudioCopy v0.95a5
# Normalized: r3:DSETVAR1
#
DISCID=f20d1c12
DTITLE=Various Artist - Devil's Blues
DYEAR=2001
DGENRE=Blues
TTITLE0=Magic Sam - 21 Days In Jail
TTITLE1=Peppermint Harris - Bad, Bad, Whiskey
TTITLE2=Cash McCall - Stoop Down Baby
TTITLE3=Sonny Boy Williamson - I Been Dealing With the Devil
TTITLE4=J. B. Lenior - The Mojo (Boogie)
TTITLE5=Robert Ward - Something Good Drivin' the Devil Nuts
TTITLE6=Big Mac - Bad Affair
TTITLE7=Carter Brothers - Booze In a Bottle
TTITLE8=Otis Spann - Must Have Been the Devil
TTITLE9=Memphis Minnie - Kissing In the Dark
TTITLE10=Little Johnny Taylor - Open House At My House
TTITLE11=Charles Brown - Trouble Blues
TTITLE12=Lightnin' Hopkins - Gambler's Blues
TTITLE13=Ted Taylor - Something Strange Is Goin' On In My House
TTITLE14=John Brim - Drinking Woman
TTITLE15=Cicero Blake - Dip My Dipper
TTITLE16=T-Bone Walker - Street Walking Women
TTITLE17=Big Joe Turner - Night Time Is the Right Time
EXTD=LABEL =Fuel 2000 Records - EMusic.com\nID =3020611022\nUPC =030206-110227\nCOPYRIGHT =2001
EXTT0=
EXTT1=
EXTT2=
EXTT3=
EXTT4=
EXTT5=
EXTT6=
EXTT7=
EXTT8=
EXTT9=
EXTT10=
EXTT11=
EXTT12=
EXTT13=
EXTT14=
EXTT15=
EXTT16=
EXTT17=
PLAYORDER=
